<?xml version="1.0" encoding="UTF-8" standalone="no"?><svg xmlns="http://www.w3.org/2000/svg" xmlns:xlink="http://www.w3.org/1999/xlink" contentScriptType="application/ecmascript" contentStyleType="text/css" height="175px" preserveAspectRatio="none" style="width:562px;height:175px;" version="1.1" viewBox="0 0 562 175" width="562px" zoomAndPan="magnify"><defs><filter height="300%" id="f1s0d3ee1u0uek" width="300%" x="-1" y="-1"><feGaussianBlur result="blurOut" stdDeviation="2.0"/><feColorMatrix in="blurOut" result="blurOut2" type="matrix" values="0 0 0 0 0 0 0 0 0 0 0 0 0 0 0 0 0 0 .4 0"/><feOffset dx="4.0" dy="4.0" in="blurOut2" result="blurOut3"/><feBlend in="SourceGraphic" in2="blurOut3" mode="normal"/></filter></defs><g><!--MD5=[b2f23c4a06b9bc4c947f037f864aea3c]
class Class01--><rect fill="#FEFECE" filter="url(#f1s0d3ee1u0uek)" height="48" id="Class01" style="stroke: #A80036; stroke-width: 1.5;" width="81" x="6" y="8"/><ellipse cx="21" cy="24" fill="#ADD1B2" rx="11" ry="11" style="stroke: #A80036; stroke-width: 1.0;"/><path d="M23.3438,19.6719 L23.5156,19.75 C23.7344,19.4375 23.9375,19.3438 24.2344,19.3438 C24.5313,19.3438 24.8125,19.4844 24.9688,19.75 C25.0625,19.9063 25.0781,20.0313 25.0781,20.4688 L25.0781,21.8906 C25.0781,22.3125 25.0469,22.5 24.9375,22.6563 C24.7656,22.875 24.5,23.0156 24.2344,23.0156 C24.0156,23.0156 23.7813,22.9063 23.6406,22.7656 C23.5,22.6406 23.4688,22.5156 23.4063,22.1094 C23.3125,21.7031 23.1406,21.4844 22.6563,21.2031 C22.1875,20.9531 21.5781,20.7969 21,20.7969 C19.2656,20.7969 18.0156,22.1094 18.0156,23.8906 L18.0156,24.9844 C18.0156,26.6875 19.3125,27.7813 21.3594,27.7813 C22.125,27.7813 22.8125,27.6563 23.2344,27.3906 C23.4219,27.2969 23.4219,27.2969 23.875,26.8125 C24.0625,26.625 24.2656,26.5469 24.4844,26.5469 C24.9531,26.5469 25.3438,26.9375 25.3438,27.3906 C25.3438,27.7813 25.0156,28.2344 24.4375,28.6406 C23.6875,29.1875 22.5313,29.4844 21.3125,29.4844 C18.4219,29.4844 16.3125,27.5938 16.3125,25.0156 L16.3125,23.8906 C16.3125,21.1719 18.3125,19.0938 20.9375,19.0938 C21.8125,19.0938 22.4063,19.2344 23.3438,19.6719 Z "/><text fill="#000000" font-family="sans-serif" font-size="12" lengthAdjust="spacingAndGlyphs" textLength="49" x="35" y="28.1543">Class01</text><line style="stroke: #A80036; stroke-width: 1.5;" x1="7" x2="86" y1="40" y2="40"/><line style="stroke: #A80036; stroke-width: 1.5;" x1="7" x2="86" y1="48" y2="48"/><!--MD5=[67b7f66b9c6b27d60ed6d0424460c06c]
class Class02--><rect fill="#FEFECE" filter="url(#f1s0d3ee1u0uek)" height="48" id="Class02" style="stroke: #A80036; stroke-width: 1.5;" width="81" x="6" y="116"/><ellipse cx="21" cy="132" fill="#ADD1B2" rx="11" ry="11" style="stroke: #A80036; stroke-width: 1.0;"/><path d="M23.3438,127.6719 L23.5156,127.75 C23.7344,127.4375 23.9375,127.3438 24.2344,127.3438 C24.5313,127.3438 24.8125,127.4844 24.9688,127.75 C25.0625,127.9063 25.0781,128.0313 25.0781,128.4688 L25.0781,129.8906 C25.0781,130.3125 25.0469,130.5 24.9375,130.6563 C24.7656,130.875 24.5,131.0156 24.2344,131.0156 C24.0156,131.0156 23.7813,130.9063 23.6406,130.7656 C23.5,130.6406 23.4688,130.5156 23.4063,130.1094 C23.3125,129.7031 23.1406,129.4844 22.6563,129.2031 C22.1875,128.9531 21.5781,128.7969 21,128.7969 C19.2656,128.7969 18.0156,130.1094 18.0156,131.8906 L18.0156,132.9844 C18.0156,134.6875 19.3125,135.7813 21.3594,135.7813 C22.125,135.7813 22.8125,135.6563 23.2344,135.3906 C23.4219,135.2969 23.4219,135.2969 23.875,134.8125 C24.0625,134.625 24.2656,134.5469 24.4844,134.5469 C24.9531,134.5469 25.3438,134.9375 25.3438,135.3906 C25.3438,135.7813 25.0156,136.2344 24.4375,136.6406 C23.6875,137.1875 22.5313,137.4844 21.3125,137.4844 C18.4219,137.4844 16.3125,135.5938 16.3125,133.0156 L16.3125,131.8906 C16.3125,129.1719 18.3125,127.0938 20.9375,127.0938 C21.8125,127.0938 22.4063,127.2344 23.3438,127.6719 Z "/><text fill="#000000" font-family="sans-serif" font-size="12" lengthAdjust="spacingAndGlyphs" textLength="49" x="35" y="136.1543">Class02</text><line style="stroke: #A80036; stroke-width: 1.5;" x1="7" x2="86" y1="148" y2="148"/><line style="stroke: #A80036; stroke-width: 1.5;" x1="7" x2="86" y1="156" y2="156"/><!--MD5=[e34eefe962fcadefcbf83660cc436420]
class Class03--><rect fill="#FEFECE" filter="url(#f1s0d3ee1u0uek)" height="48" id="Class03" style="stroke: #A80036; stroke-width: 1.5;" width="81" x="122" y="8"/><ellipse cx="137" cy="24" fill="#ADD1B2" rx="11" ry="11" style="stroke: #A80036; stroke-width: 1.0;"/><path d="M139.3438,19.6719 L139.5156,19.75 C139.7344,19.4375 139.9375,19.3438 140.2344,19.3438 C140.5313,19.3438 140.8125,19.4844 140.9688,19.75 C141.0625,19.9063 141.0781,20.0313 141.0781,20.4688 L141.0781,21.8906 C141.0781,22.3125 141.0469,22.5 140.9375,22.6563 C140.7656,22.875 140.5,23.0156 140.2344,23.0156 C140.0156,23.0156 139.7813,22.9063 139.6406,22.7656 C139.5,22.6406 139.4688,22.5156 139.4063,22.1094 C139.3125,21.7031 139.1406,21.4844 138.6563,21.2031 C138.1875,20.9531 137.5781,20.7969 137,20.7969 C135.2656,20.7969 134.0156,22.1094 134.0156,23.8906 L134.0156,24.9844 C134.0156,26.6875 135.3125,27.7813 137.3594,27.7813 C138.125,27.7813 138.8125,27.6563 139.2344,27.3906 C139.4219,27.2969 139.4219,27.2969 139.875,26.8125 C140.0625,26.625 140.2656,26.5469 140.4844,26.5469 C140.9531,26.5469 141.3438,26.9375 141.3438,27.3906 C141.3438,27.7813 141.0156,28.2344 140.4375,28.6406 C139.6875,29.1875 138.5313,29.4844 137.3125,29.4844 C134.4219,29.4844 132.3125,27.5938 132.3125,25.0156 L132.3125,23.8906 C132.3125,21.1719 134.3125,19.0938 136.9375,19.0938 C137.8125,19.0938 138.4063,19.2344 139.3438,19.6719 Z "/><text fill="#000000" font-family="sans-serif" font-size="12" lengthAdjust="spacingAndGlyphs" textLength="49" x="151" y="28.1543">Class03</text><line style="stroke: #A80036; stroke-width: 1.5;" x1="123" x2="202" y1="40" y2="40"/><line style="stroke: #A80036; stroke-width: 1.5;" x1="123" x2="202" y1="48" y2="48"/><!--MD5=[d53a23475d458e69a9e37a48405189e2]
class Class04--><rect fill="#FEFECE" filter="url(#f1s0d3ee1u0uek)" height="48" id="Class04" style="stroke: #A80036; stroke-width: 1.5;" width="81" x="122" y="116"/><ellipse cx="137" cy="132" fill="#ADD1B2" rx="11" ry="11" style="stroke: #A80036; stroke-width: 1.0;"/><path d="M139.3438,127.6719 L139.5156,127.75 C139.7344,127.4375 139.9375,127.3438 140.2344,127.3438 C140.5313,127.3438 140.8125,127.4844 140.9688,127.75 C141.0625,127.9063 141.0781,128.0313 141.0781,128.4688 L141.0781,129.8906 C141.0781,130.3125 141.0469,130.5 140.9375,130.6563 C140.7656,130.875 140.5,131.0156 140.2344,131.0156 C140.0156,131.0156 139.7813,130.9063 139.6406,130.7656 C139.5,130.6406 139.4688,130.5156 139.4063,130.1094 C139.3125,129.7031 139.1406,129.4844 138.6563,129.2031 C138.1875,128.9531 137.5781,128.7969 137,128.7969 C135.2656,128.7969 134.0156,130.1094 134.0156,131.8906 L134.0156,132.9844 C134.0156,134.6875 135.3125,135.7813 137.3594,135.7813 C138.125,135.7813 138.8125,135.6563 139.2344,135.3906 C139.4219,135.2969 139.4219,135.2969 139.875,134.8125 C140.0625,134.625 140.2656,134.5469 140.4844,134.5469 C140.9531,134.5469 141.3438,134.9375 141.3438,135.3906 C141.3438,135.7813 141.0156,136.2344 140.4375,136.6406 C139.6875,137.1875 138.5313,137.4844 137.3125,137.4844 C134.4219,137.4844 132.3125,135.5938 132.3125,133.0156 L132.3125,131.8906 C132.3125,129.1719 134.3125,127.0938 136.9375,127.0938 C137.8125,127.0938 138.4063,127.2344 139.3438,127.6719 Z "/><text fill="#000000" font-family="sans-serif" font-size="12" lengthAdjust="spacingAndGlyphs" textLength="49" x="151" y="136.1543">Class04</text><line style="stroke: #A80036; stroke-width: 1.5;" x1="123" x2="202" y1="148" y2="148"/><line style="stroke: #A80036; stroke-width: 1.5;" x1="123" x2="202" y1="156" y2="156"/><!--MD5=[21c802bf509ebb275d96eccffaf3e0b6]
class Class05--><rect fill="#FEFECE" filter="url(#f1s0d3ee1u0uek)" height="48" id="Class05" style="stroke: #A80036; stroke-width: 1.5;" width="81" x="238" y="8"/><ellipse cx="253" cy="24" fill="#ADD1B2" rx="11" ry="11" style="stroke: #A80036; stroke-width: 1.0;"/><path d="M255.3438,19.6719 L255.5156,19.75 C255.7344,19.4375 255.9375,19.3438 256.2344,19.3438 C256.5313,19.3438 256.8125,19.4844 256.9688,19.75 C257.0625,19.9063 257.0781,20.0313 257.0781,20.4688 L257.0781,21.8906 C257.0781,22.3125 257.0469,22.5 256.9375,22.6563 C256.7656,22.875 256.5,23.0156 256.2344,23.0156 C256.0156,23.0156 255.7813,22.9063 255.6406,22.7656 C255.5,22.6406 255.4688,22.5156 255.4063,22.1094 C255.3125,21.7031 255.1406,21.4844 254.6563,21.2031 C254.1875,20.9531 253.5781,20.7969 253,20.7969 C251.2656,20.7969 250.0156,22.1094 250.0156,23.8906 L250.0156,24.9844 C250.0156,26.6875 251.3125,27.7813 253.3594,27.7813 C254.125,27.7813 254.8125,27.6563 255.2344,27.3906 C255.4219,27.2969 255.4219,27.2969 255.875,26.8125 C256.0625,26.625 256.2656,26.5469 256.4844,26.5469 C256.9531,26.5469 257.3438,26.9375 257.3438,27.3906 C257.3438,27.7813 257.0156,28.2344 256.4375,28.6406 C255.6875,29.1875 254.5313,29.4844 253.3125,29.4844 C250.4219,29.4844 248.3125,27.5938 248.3125,25.0156 L248.3125,23.8906 C248.3125,21.1719 250.3125,19.0938 252.9375,19.0938 C253.8125,19.0938 254.4063,19.2344 255.3438,19.6719 Z "/><text fill="#000000" font-family="sans-serif" font-size="12" lengthAdjust="spacingAndGlyphs" textLength="49" x="267" y="28.1543">Class05</text><line style="stroke: #A80036; stroke-width: 1.5;" x1="239" x2="318" y1="40" y2="40"/><line style="stroke: #A80036; stroke-width: 1.5;" x1="239" x2="318" y1="48" y2="48"/><!--MD5=[247dd373b5711b206209116e093ec52c]
class Class06--><rect fill="#FEFECE" filter="url(#f1s0d3ee1u0uek)" height="48" id="Class06" style="stroke: #A80036; stroke-width: 1.5;" width="81" x="238" y="116"/><ellipse cx="253" cy="132" fill="#ADD1B2" rx="11" ry="11" style="stroke: #A80036; stroke-width: 1.0;"/><path d="M255.3438,127.6719 L255.5156,127.75 C255.7344,127.4375 255.9375,127.3438 256.2344,127.3438 C256.5313,127.3438 256.8125,127.4844 256.9688,127.75 C257.0625,127.9063 257.0781,128.0313 257.0781,128.4688 L257.0781,129.8906 C257.0781,130.3125 257.0469,130.5 256.9375,130.6563 C256.7656,130.875 256.5,131.0156 256.2344,131.0156 C256.0156,131.0156 255.7813,130.9063 255.6406,130.7656 C255.5,130.6406 255.4688,130.5156 255.4063,130.1094 C255.3125,129.7031 255.1406,129.4844 254.6563,129.2031 C254.1875,128.9531 253.5781,128.7969 253,128.7969 C251.2656,128.7969 250.0156,130.1094 250.0156,131.8906 L250.0156,132.9844 C250.0156,134.6875 251.3125,135.7813 253.3594,135.7813 C254.125,135.7813 254.8125,135.6563 255.2344,135.3906 C255.4219,135.2969 255.4219,135.2969 255.875,134.8125 C256.0625,134.625 256.2656,134.5469 256.4844,134.5469 C256.9531,134.5469 257.3438,134.9375 257.3438,135.3906 C257.3438,135.7813 257.0156,136.2344 256.4375,136.6406 C255.6875,137.1875 254.5313,137.4844 253.3125,137.4844 C250.4219,137.4844 248.3125,135.5938 248.3125,133.0156 L248.3125,131.8906 C248.3125,129.1719 250.3125,127.0938 252.9375,127.0938 C253.8125,127.0938 254.4063,127.2344 255.3438,127.6719 Z "/><text fill="#000000" font-family="sans-serif" font-size="12" lengthAdjust="spacingAndGlyphs" textLength="49" x="267" y="136.1543">Class06</text><line style="stroke: #A80036; stroke-width: 1.5;" x1="239" x2="318" y1="148" y2="148"/><line style="stroke: #A80036; stroke-width: 1.5;" x1="239" x2="318" y1="156" y2="156"/><!--MD5=[83017deacfdfe1c29bd0eb2a2cc9c723]
class Class07--><rect fill="#FEFECE" filter="url(#f1s0d3ee1u0uek)" height="48" id="Class07" style="stroke: #A80036; stroke-width: 1.5;" width="81" x="354" y="8"/><ellipse cx="369" cy="24" fill="#ADD1B2" rx="11" ry="11" style="stroke: #A80036; stroke-width: 1.0;"/><path d="M371.3438,19.6719 L371.5156,19.75 C371.7344,19.4375 371.9375,19.3438 372.2344,19.3438 C372.5313,19.3438 372.8125,19.4844 372.9688,19.75 C373.0625,19.9063 373.0781,20.0313 373.0781,20.4688 L373.0781,21.8906 C373.0781,22.3125 373.0469,22.5 372.9375,22.6563 C372.7656,22.875 372.5,23.0156 372.2344,23.0156 C372.0156,23.0156 371.7813,22.9063 371.6406,22.7656 C371.5,22.6406 371.4688,22.5156 371.4063,22.1094 C371.3125,21.7031 371.1406,21.4844 370.6563,21.2031 C370.1875,20.9531 369.5781,20.7969 369,20.7969 C367.2656,20.7969 366.0156,22.1094 366.0156,23.8906 L366.0156,24.9844 C366.0156,26.6875 367.3125,27.7813 369.3594,27.7813 C370.125,27.7813 370.8125,27.6563 371.2344,27.3906 C371.4219,27.2969 371.4219,27.2969 371.875,26.8125 C372.0625,26.625 372.2656,26.5469 372.4844,26.5469 C372.9531,26.5469 373.3438,26.9375 373.3438,27.3906 C373.3438,27.7813 373.0156,28.2344 372.4375,28.6406 C371.6875,29.1875 370.5313,29.4844 369.3125,29.4844 C366.4219,29.4844 364.3125,27.5938 364.3125,25.0156 L364.3125,23.8906 C364.3125,21.1719 366.3125,19.0938 368.9375,19.0938 C369.8125,19.0938 370.4063,19.2344 371.3438,19.6719 Z "/><text fill="#000000" font-family="sans-serif" font-size="12" lengthAdjust="spacingAndGlyphs" textLength="49" x="383" y="28.1543">Class07</text><line style="stroke: #A80036; stroke-width: 1.5;" x1="355" x2="434" y1="40" y2="40"/><line style="stroke: #A80036; stroke-width: 1.5;" x1="355" x2="434" y1="48" y2="48"/><!--MD5=[0e75c8574cc137f0f93c5ac687b4b98c]
class Class08--><rect fill="#FEFECE" filter="url(#f1s0d3ee1u0uek)" height="48" id="Class08" style="stroke: #A80036; stroke-width: 1.5;" width="81" x="354" y="116"/><ellipse cx="369" cy="132" fill="#ADD1B2" rx="11" ry="11" style="stroke: #A80036; stroke-width: 1.0;"/><path d="M371.3438,127.6719 L371.5156,127.75 C371.7344,127.4375 371.9375,127.3438 372.2344,127.3438 C372.5313,127.3438 372.8125,127.4844 372.9688,127.75 C373.0625,127.9063 373.0781,128.0313 373.0781,128.4688 L373.0781,129.8906 C373.0781,130.3125 373.0469,130.5 372.9375,130.6563 C372.7656,130.875 372.5,131.0156 372.2344,131.0156 C372.0156,131.0156 371.7813,130.9063 371.6406,130.7656 C371.5,130.6406 371.4688,130.5156 371.4063,130.1094 C371.3125,129.7031 371.1406,129.4844 370.6563,129.2031 C370.1875,128.9531 369.5781,128.7969 369,128.7969 C367.2656,128.7969 366.0156,130.1094 366.0156,131.8906 L366.0156,132.9844 C366.0156,134.6875 367.3125,135.7813 369.3594,135.7813 C370.125,135.7813 370.8125,135.6563 371.2344,135.3906 C371.4219,135.2969 371.4219,135.2969 371.875,134.8125 C372.0625,134.625 372.2656,134.5469 372.4844,134.5469 C372.9531,134.5469 373.3438,134.9375 373.3438,135.3906 C373.3438,135.7813 373.0156,136.2344 372.4375,136.6406 C371.6875,137.1875 370.5313,137.4844 369.3125,137.4844 C366.4219,137.4844 364.3125,135.5938 364.3125,133.0156 L364.3125,131.8906 C364.3125,129.1719 366.3125,127.0938 368.9375,127.0938 C369.8125,127.0938 370.4063,127.2344 371.3438,127.6719 Z "/><text fill="#000000" font-family="sans-serif" font-size="12" lengthAdjust="spacingAndGlyphs" textLength="49" x="383" y="136.1543">Class08</text><line style="stroke: #A80036; stroke-width: 1.5;" x1="355" x2="434" y1="148" y2="148"/><line style="stroke: #A80036; stroke-width: 1.5;" x1="355" x2="434" y1="156" y2="156"/><!--MD5=[11c0341282256c64706f32de960d439a]
class Class09--><rect fill="#FEFECE" filter="url(#f1s0d3ee1u0uek)" height="48" id="Class09" style="stroke: #A80036; stroke-width: 1.5;" width="81" x="470" y="8"/><ellipse cx="485" cy="24" fill="#ADD1B2" rx="11" ry="11" style="stroke: #A80036; stroke-width: 1.0;"/><path d="M487.3438,19.6719 L487.5156,19.75 C487.7344,19.4375 487.9375,19.3438 488.2344,19.3438 C488.5313,19.3438 488.8125,19.4844 488.9688,19.75 C489.0625,19.9063 489.0781,20.0313 489.0781,20.4688 L489.0781,21.8906 C489.0781,22.3125 489.0469,22.5 488.9375,22.6563 C488.7656,22.875 488.5,23.0156 488.2344,23.0156 C488.0156,23.0156 487.7813,22.9063 487.6406,22.7656 C487.5,22.6406 487.4688,22.5156 487.4063,22.1094 C487.3125,21.7031 487.1406,21.4844 486.6563,21.2031 C486.1875,20.9531 485.5781,20.7969 485,20.7969 C483.2656,20.7969 482.0156,22.1094 482.0156,23.8906 L482.0156,24.9844 C482.0156,26.6875 483.3125,27.7813 485.3594,27.7813 C486.125,27.7813 486.8125,27.6563 487.2344,27.3906 C487.4219,27.2969 487.4219,27.2969 487.875,26.8125 C488.0625,26.625 488.2656,26.5469 488.4844,26.5469 C488.9531,26.5469 489.3438,26.9375 489.3438,27.3906 C489.3438,27.7813 489.0156,28.2344 488.4375,28.6406 C487.6875,29.1875 486.5313,29.4844 485.3125,29.4844 C482.4219,29.4844 480.3125,27.5938 480.3125,25.0156 L480.3125,23.8906 C480.3125,21.1719 482.3125,19.0938 484.9375,19.0938 C485.8125,19.0938 486.4063,19.2344 487.3438,19.6719 Z "/><text fill="#000000" font-family="sans-serif" font-size="12" lengthAdjust="spacingAndGlyphs" textLength="49" x="499" y="28.1543">Class09</text><line style="stroke: #A80036; stroke-width: 1.5;" x1="471" x2="550" y1="40" y2="40"/><line style="stroke: #A80036; stroke-width: 1.5;" x1="471" x2="550" y1="48" y2="48"/><!--MD5=[f0780a43e5c0af3c52b439b7f3f3994e]
class Class10--><rect fill="#FEFECE" filter="url(#f1s0d3ee1u0uek)" height="48" id="Class10" style="stroke: #A80036; stroke-width: 1.5;" width="81" x="470" y="116"/><ellipse cx="485" cy="132" fill="#ADD1B2" rx="11" ry="11" style="stroke: #A80036; stroke-width: 1.0;"/><path d="M487.3438,127.6719 L487.5156,127.75 C487.7344,127.4375 487.9375,127.3438 488.2344,127.3438 C488.5313,127.3438 488.8125,127.4844 488.9688,127.75 C489.0625,127.9063 489.0781,128.0313 489.0781,128.4688 L489.0781,129.8906 C489.0781,130.3125 489.0469,130.5 488.9375,130.6563 C488.7656,130.875 488.5,131.0156 488.2344,131.0156 C488.0156,131.0156 487.7813,130.9063 487.6406,130.7656 C487.5,130.6406 487.4688,130.5156 487.4063,130.1094 C487.3125,129.7031 487.1406,129.4844 486.6563,129.2031 C486.1875,128.9531 485.5781,128.7969 485,128.7969 C483.2656,128.7969 482.0156,130.1094 482.0156,131.8906 L482.0156,132.9844 C482.0156,134.6875 483.3125,135.7813 485.3594,135.7813 C486.125,135.7813 486.8125,135.6563 487.2344,135.3906 C487.4219,135.2969 487.4219,135.2969 487.875,134.8125 C488.0625,134.625 488.2656,134.5469 488.4844,134.5469 C488.9531,134.5469 489.3438,134.9375 489.3438,135.3906 C489.3438,135.7813 489.0156,136.2344 488.4375,136.6406 C487.6875,137.1875 486.5313,137.4844 485.3125,137.4844 C482.4219,137.4844 480.3125,135.5938 480.3125,133.0156 L480.3125,131.8906 C480.3125,129.1719 482.3125,127.0938 484.9375,127.0938 C485.8125,127.0938 486.4063,127.2344 487.3438,127.6719 Z "/><text fill="#000000" font-family="sans-serif" font-size="12" lengthAdjust="spacingAndGlyphs" textLength="49" x="499" y="136.1543">Class10</text><line style="stroke: #A80036; stroke-width: 1.5;" x1="471" x2="550" y1="148" y2="148"/><line style="stroke: #A80036; stroke-width: 1.5;" x1="471" x2="550" y1="156" y2="156"/><!--MD5=[3ab52052fd7925c5f64fca5d41d6866e]
reverse link Class01 to Class02--><path d="M46.5,76.0236 C46.5,89.5792 46.5,104.0381 46.5,115.6784 " fill="none" id="Class01&lt;-Class02" style="stroke: #A80036; stroke-width: 1.0;"/><polygon fill="none" points="39.5001,76.0005,46.5,56,53.5001,76.0004,39.5001,76.0005" style="stroke: #A80036; stroke-width: 1.0;"/><!--MD5=[0815ca07f8d628dc1a46a48ef0cd4c01]
reverse link Class03 to Class04--><path d="M162.5,69.3383 C162.5,84.6813 162.5,102.098 162.5,115.6784 " fill="none" id="Class03&lt;-Class04" style="stroke: #A80036; stroke-width: 1.0;"/><polygon fill="#A80036" points="162.5,56,158.5,62,162.5,68,166.5,62,162.5,56" style="stroke: #A80036; stroke-width: 1.0;"/><!--MD5=[07ec844cc9d193d99f69abe09e63aa9e]
reverse link Class05 to Class06--><path d="M278.5,69.3383 C278.5,84.6813 278.5,102.098 278.5,115.6784 " fill="none" id="Class05&lt;-Class06" style="stroke: #A80036; stroke-width: 1.0;"/><polygon fill="#FFFFFF" points="278.5,56,274.5,62,278.5,68,282.5,62,278.5,56" style="stroke: #A80036; stroke-width: 1.0;"/><!--MD5=[cd6c6022d9f7be31b268d5c573778c45]
link Class07 to Class08--><path d="M394.5,56 C394.5,73.6584 394.5,97.9408 394.5,115.6784 " fill="none" id="Class07-Class08" style="stroke: #A80036; stroke-width: 1.0; stroke-dasharray: 7.0,7.0;"/><!--MD5=[012abb55b9b004b4a603a60db8edb83a]
link Class09 to Class10--><path d="M510.5,56 C510.5,73.6584 510.5,97.9408 510.5,115.6784 " fill="none" id="Class09-Class10" style="stroke: #A80036; stroke-width: 1.0;"/><!--MD5=[763e0e262575959a6c60282156944292]
@startuml
Class01 <|- - Class02
Class03 *- - Class04
Class05 o- - Class06
Class07 .. Class08
Class09 - - Class10
@enduml

PlantUML version 1.2019.12(Sun Nov 03 10:24:54 UTC 2019)
(GPL source distribution)
Java Runtime: Java(TM) SE Runtime Environment
JVM: Java HotSpot(TM) 64-Bit Server VM
Java Version: 1.7.0_25-b15
Operating System: Linux
Default Encoding: UTF-8
Language: en
Country: US
--></g></svg>