<?xml version="1.0" encoding="UTF-8" standalone="no"?><svg xmlns="http://www.w3.org/2000/svg" xmlns:xlink="http://www.w3.org/1999/xlink" contentStyleType="text/css" height="170px" preserveAspectRatio="none" style="width:584px;height:170px;background:#FFFFFF;" version="1.1" viewBox="0 0 584 170" width="584px" zoomAndPan="magnify"><defs/><g><!--MD5=[b2f23c4a06b9bc4c947f037f864aea3c]
class Class01--><g id="elem_Class01"><rect fill="#F1F1F1" height="48" id="Class01" rx="2.5" ry="2.5" style="stroke:#181818;stroke-width:0.5;" width="86" x="7" y="7"/><ellipse cx="22" cy="23" fill="#ADD1B2" rx="11" ry="11" style="stroke:#181818;stroke-width:1.0;"/><path d="M24.3438,18.6719 C23.4063,18.2344 22.8125,18.0938 21.9375,18.0938 C19.3125,18.0938 17.3125,20.1719 17.3125,22.8906 L17.3125,24.0156 C17.3125,26.5938 19.4219,28.4844 22.3125,28.4844 C23.5313,28.4844 24.6875,28.1875 25.4375,27.6406 C26.0156,27.2344 26.3438,26.7813 26.3438,26.3906 C26.3438,25.9375 25.9531,25.5469 25.4844,25.5469 C25.2656,25.5469 25.0625,25.625 24.875,25.8125 C24.4219,26.2969 24.4219,26.2969 24.2344,26.3906 C23.8125,26.6563 23.125,26.7813 22.3594,26.7813 C20.3125,26.7813 19.0156,25.6875 19.0156,23.9844 L19.0156,22.8906 C19.0156,21.1094 20.2656,19.7969 22,19.7969 C22.5781,19.7969 23.1875,19.9531 23.6563,20.2031 C24.1406,20.4844 24.3125,20.7031 24.4063,21.1094 C24.4688,21.5156 24.5,21.6406 24.6406,21.7656 C24.7813,21.9063 25.0156,22.0156 25.2344,22.0156 C25.5,22.0156 25.7656,21.875 25.9375,21.6563 C26.0469,21.5 26.0781,21.3125 26.0781,20.8906 L26.0781,19.4688 C26.0781,19.0313 26.0625,18.9063 25.9688,18.75 C25.8125,18.4844 25.5313,18.3438 25.2344,18.3438 C24.9375,18.3438 24.7344,18.4375 24.5156,18.75 L24.3438,18.6719 Z " fill="#000000"/><text fill="#000000" font-family="sans-serif" font-size="14" lengthAdjust="spacing" textLength="54" x="36" y="27.8467">Class01</text><line style="stroke:#181818;stroke-width:0.5;" x1="8" x2="92" y1="39" y2="39"/><line style="stroke:#181818;stroke-width:0.5;" x1="8" x2="92" y1="47" y2="47"/></g><!--MD5=[67b7f66b9c6b27d60ed6d0424460c06c]
class Class02--><g id="elem_Class02"><rect fill="#F1F1F1" height="48" id="Class02" rx="2.5" ry="2.5" style="stroke:#181818;stroke-width:0.5;" width="85" x="7.5" y="115"/><ellipse cx="22.5" cy="131" fill="#ADD1B2" rx="11" ry="11" style="stroke:#181818;stroke-width:1.0;"/><path d="M24.8438,126.6719 C23.9063,126.2344 23.3125,126.0938 22.4375,126.0938 C19.8125,126.0938 17.8125,128.1719 17.8125,130.8906 L17.8125,132.0156 C17.8125,134.5938 19.9219,136.4844 22.8125,136.4844 C24.0313,136.4844 25.1875,136.1875 25.9375,135.6406 C26.5156,135.2344 26.8438,134.7813 26.8438,134.3906 C26.8438,133.9375 26.4531,133.5469 25.9844,133.5469 C25.7656,133.5469 25.5625,133.625 25.375,133.8125 C24.9219,134.2969 24.9219,134.2969 24.7344,134.3906 C24.3125,134.6563 23.625,134.7813 22.8594,134.7813 C20.8125,134.7813 19.5156,133.6875 19.5156,131.9844 L19.5156,130.8906 C19.5156,129.1094 20.7656,127.7969 22.5,127.7969 C23.0781,127.7969 23.6875,127.9531 24.1563,128.2031 C24.6406,128.4844 24.8125,128.7031 24.9063,129.1094 C24.9688,129.5156 25,129.6406 25.1406,129.7656 C25.2813,129.9063 25.5156,130.0156 25.7344,130.0156 C26,130.0156 26.2656,129.875 26.4375,129.6563 C26.5469,129.5 26.5781,129.3125 26.5781,128.8906 L26.5781,127.4688 C26.5781,127.0313 26.5625,126.9063 26.4688,126.75 C26.3125,126.4844 26.0313,126.3438 25.7344,126.3438 C25.4375,126.3438 25.2344,126.4375 25.0156,126.75 L24.8438,126.6719 Z " fill="#000000"/><text fill="#000000" font-family="sans-serif" font-size="14" lengthAdjust="spacing" textLength="53" x="36.5" y="135.8467">Class02</text><line style="stroke:#181818;stroke-width:0.5;" x1="8.5" x2="91.5" y1="147" y2="147"/><line style="stroke:#181818;stroke-width:0.5;" x1="8.5" x2="91.5" y1="155" y2="155"/></g><!--MD5=[e34eefe962fcadefcbf83660cc436420]
class Class03--><g id="elem_Class03"><rect fill="#F1F1F1" height="48" id="Class03" rx="2.5" ry="2.5" style="stroke:#181818;stroke-width:0.5;" width="86" x="128" y="7"/><ellipse cx="143" cy="23" fill="#ADD1B2" rx="11" ry="11" style="stroke:#181818;stroke-width:1.0;"/><path d="M145.3438,18.6719 C144.4063,18.2344 143.8125,18.0938 142.9375,18.0938 C140.3125,18.0938 138.3125,20.1719 138.3125,22.8906 L138.3125,24.0156 C138.3125,26.5938 140.4219,28.4844 143.3125,28.4844 C144.5313,28.4844 145.6875,28.1875 146.4375,27.6406 C147.0156,27.2344 147.3438,26.7813 147.3438,26.3906 C147.3438,25.9375 146.9531,25.5469 146.4844,25.5469 C146.2656,25.5469 146.0625,25.625 145.875,25.8125 C145.4219,26.2969 145.4219,26.2969 145.2344,26.3906 C144.8125,26.6563 144.125,26.7813 143.3594,26.7813 C141.3125,26.7813 140.0156,25.6875 140.0156,23.9844 L140.0156,22.8906 C140.0156,21.1094 141.2656,19.7969 143,19.7969 C143.5781,19.7969 144.1875,19.9531 144.6563,20.2031 C145.1406,20.4844 145.3125,20.7031 145.4063,21.1094 C145.4688,21.5156 145.5,21.6406 145.6406,21.7656 C145.7813,21.9063 146.0156,22.0156 146.2344,22.0156 C146.5,22.0156 146.7656,21.875 146.9375,21.6563 C147.0469,21.5 147.0781,21.3125 147.0781,20.8906 L147.0781,19.4688 C147.0781,19.0313 147.0625,18.9063 146.9688,18.75 C146.8125,18.4844 146.5313,18.3438 146.2344,18.3438 C145.9375,18.3438 145.7344,18.4375 145.5156,18.75 L145.3438,18.6719 Z " fill="#000000"/><text fill="#000000" font-family="sans-serif" font-size="14" lengthAdjust="spacing" textLength="54" x="157" y="27.8467">Class03</text><line style="stroke:#181818;stroke-width:0.5;" x1="129" x2="213" y1="39" y2="39"/><line style="stroke:#181818;stroke-width:0.5;" x1="129" x2="213" y1="47" y2="47"/></g><!--MD5=[d53a23475d458e69a9e37a48405189e2]
class Class04--><g id="elem_Class04"><rect fill="#F1F1F1" height="48" id="Class04" rx="2.5" ry="2.5" style="stroke:#181818;stroke-width:0.5;" width="85" x="128.5" y="115"/><ellipse cx="143.5" cy="131" fill="#ADD1B2" rx="11" ry="11" style="stroke:#181818;stroke-width:1.0;"/><path d="M145.8438,126.6719 C144.9063,126.2344 144.3125,126.0938 143.4375,126.0938 C140.8125,126.0938 138.8125,128.1719 138.8125,130.8906 L138.8125,132.0156 C138.8125,134.5938 140.9219,136.4844 143.8125,136.4844 C145.0313,136.4844 146.1875,136.1875 146.9375,135.6406 C147.5156,135.2344 147.8438,134.7813 147.8438,134.3906 C147.8438,133.9375 147.4531,133.5469 146.9844,133.5469 C146.7656,133.5469 146.5625,133.625 146.375,133.8125 C145.9219,134.2969 145.9219,134.2969 145.7344,134.3906 C145.3125,134.6563 144.625,134.7813 143.8594,134.7813 C141.8125,134.7813 140.5156,133.6875 140.5156,131.9844 L140.5156,130.8906 C140.5156,129.1094 141.7656,127.7969 143.5,127.7969 C144.0781,127.7969 144.6875,127.9531 145.1563,128.2031 C145.6406,128.4844 145.8125,128.7031 145.9063,129.1094 C145.9688,129.5156 146,129.6406 146.1406,129.7656 C146.2813,129.9063 146.5156,130.0156 146.7344,130.0156 C147,130.0156 147.2656,129.875 147.4375,129.6563 C147.5469,129.5 147.5781,129.3125 147.5781,128.8906 L147.5781,127.4688 C147.5781,127.0313 147.5625,126.9063 147.4688,126.75 C147.3125,126.4844 147.0313,126.3438 146.7344,126.3438 C146.4375,126.3438 146.2344,126.4375 146.0156,126.75 L145.8438,126.6719 Z " fill="#000000"/><text fill="#000000" font-family="sans-serif" font-size="14" lengthAdjust="spacing" textLength="53" x="157.5" y="135.8467">Class04</text><line style="stroke:#181818;stroke-width:0.5;" x1="129.5" x2="212.5" y1="147" y2="147"/><line style="stroke:#181818;stroke-width:0.5;" x1="129.5" x2="212.5" y1="155" y2="155"/></g><!--MD5=[21c802bf509ebb275d96eccffaf3e0b6]
class Class05--><g id="elem_Class05"><rect fill="#F1F1F1" height="48" id="Class05" rx="2.5" ry="2.5" style="stroke:#181818;stroke-width:0.5;" width="86" x="249" y="7"/><ellipse cx="264" cy="23" fill="#ADD1B2" rx="11" ry="11" style="stroke:#181818;stroke-width:1.0;"/><path d="M266.3438,18.6719 C265.4063,18.2344 264.8125,18.0938 263.9375,18.0938 C261.3125,18.0938 259.3125,20.1719 259.3125,22.8906 L259.3125,24.0156 C259.3125,26.5938 261.4219,28.4844 264.3125,28.4844 C265.5313,28.4844 266.6875,28.1875 267.4375,27.6406 C268.0156,27.2344 268.3438,26.7813 268.3438,26.3906 C268.3438,25.9375 267.9531,25.5469 267.4844,25.5469 C267.2656,25.5469 267.0625,25.625 266.875,25.8125 C266.4219,26.2969 266.4219,26.2969 266.2344,26.3906 C265.8125,26.6563 265.125,26.7813 264.3594,26.7813 C262.3125,26.7813 261.0156,25.6875 261.0156,23.9844 L261.0156,22.8906 C261.0156,21.1094 262.2656,19.7969 264,19.7969 C264.5781,19.7969 265.1875,19.9531 265.6563,20.2031 C266.1406,20.4844 266.3125,20.7031 266.4063,21.1094 C266.4688,21.5156 266.5,21.6406 266.6406,21.7656 C266.7813,21.9063 267.0156,22.0156 267.2344,22.0156 C267.5,22.0156 267.7656,21.875 267.9375,21.6563 C268.0469,21.5 268.0781,21.3125 268.0781,20.8906 L268.0781,19.4688 C268.0781,19.0313 268.0625,18.9063 267.9688,18.75 C267.8125,18.4844 267.5313,18.3438 267.2344,18.3438 C266.9375,18.3438 266.7344,18.4375 266.5156,18.75 L266.3438,18.6719 Z " fill="#000000"/><text fill="#000000" font-family="sans-serif" font-size="14" lengthAdjust="spacing" textLength="54" x="278" y="27.8467">Class05</text><line style="stroke:#181818;stroke-width:0.5;" x1="250" x2="334" y1="39" y2="39"/><line style="stroke:#181818;stroke-width:0.5;" x1="250" x2="334" y1="47" y2="47"/></g><!--MD5=[247dd373b5711b206209116e093ec52c]
class Class06--><g id="elem_Class06"><rect fill="#F1F1F1" height="48" id="Class06" rx="2.5" ry="2.5" style="stroke:#181818;stroke-width:0.5;" width="86" x="249" y="115"/><ellipse cx="264" cy="131" fill="#ADD1B2" rx="11" ry="11" style="stroke:#181818;stroke-width:1.0;"/><path d="M266.3438,126.6719 C265.4063,126.2344 264.8125,126.0938 263.9375,126.0938 C261.3125,126.0938 259.3125,128.1719 259.3125,130.8906 L259.3125,132.0156 C259.3125,134.5938 261.4219,136.4844 264.3125,136.4844 C265.5313,136.4844 266.6875,136.1875 267.4375,135.6406 C268.0156,135.2344 268.3438,134.7813 268.3438,134.3906 C268.3438,133.9375 267.9531,133.5469 267.4844,133.5469 C267.2656,133.5469 267.0625,133.625 266.875,133.8125 C266.4219,134.2969 266.4219,134.2969 266.2344,134.3906 C265.8125,134.6563 265.125,134.7813 264.3594,134.7813 C262.3125,134.7813 261.0156,133.6875 261.0156,131.9844 L261.0156,130.8906 C261.0156,129.1094 262.2656,127.7969 264,127.7969 C264.5781,127.7969 265.1875,127.9531 265.6563,128.2031 C266.1406,128.4844 266.3125,128.7031 266.4063,129.1094 C266.4688,129.5156 266.5,129.6406 266.6406,129.7656 C266.7813,129.9063 267.0156,130.0156 267.2344,130.0156 C267.5,130.0156 267.7656,129.875 267.9375,129.6563 C268.0469,129.5 268.0781,129.3125 268.0781,128.8906 L268.0781,127.4688 C268.0781,127.0313 268.0625,126.9063 267.9688,126.75 C267.8125,126.4844 267.5313,126.3438 267.2344,126.3438 C266.9375,126.3438 266.7344,126.4375 266.5156,126.75 L266.3438,126.6719 Z " fill="#000000"/><text fill="#000000" font-family="sans-serif" font-size="14" lengthAdjust="spacing" textLength="54" x="278" y="135.8467">Class06</text><line style="stroke:#181818;stroke-width:0.5;" x1="250" x2="334" y1="147" y2="147"/><line style="stroke:#181818;stroke-width:0.5;" x1="250" x2="334" y1="155" y2="155"/></g><!--MD5=[83017deacfdfe1c29bd0eb2a2cc9c723]
class Class07--><g id="elem_Class07"><rect fill="#F1F1F1" height="48" id="Class07" rx="2.5" ry="2.5" style="stroke:#181818;stroke-width:0.5;" width="86" x="370" y="7"/><ellipse cx="385" cy="23" fill="#ADD1B2" rx="11" ry="11" style="stroke:#181818;stroke-width:1.0;"/><path d="M387.3438,18.6719 C386.4063,18.2344 385.8125,18.0938 384.9375,18.0938 C382.3125,18.0938 380.3125,20.1719 380.3125,22.8906 L380.3125,24.0156 C380.3125,26.5938 382.4219,28.4844 385.3125,28.4844 C386.5313,28.4844 387.6875,28.1875 388.4375,27.6406 C389.0156,27.2344 389.3438,26.7813 389.3438,26.3906 C389.3438,25.9375 388.9531,25.5469 388.4844,25.5469 C388.2656,25.5469 388.0625,25.625 387.875,25.8125 C387.4219,26.2969 387.4219,26.2969 387.2344,26.3906 C386.8125,26.6563 386.125,26.7813 385.3594,26.7813 C383.3125,26.7813 382.0156,25.6875 382.0156,23.9844 L382.0156,22.8906 C382.0156,21.1094 383.2656,19.7969 385,19.7969 C385.5781,19.7969 386.1875,19.9531 386.6563,20.2031 C387.1406,20.4844 387.3125,20.7031 387.4063,21.1094 C387.4688,21.5156 387.5,21.6406 387.6406,21.7656 C387.7813,21.9063 388.0156,22.0156 388.2344,22.0156 C388.5,22.0156 388.7656,21.875 388.9375,21.6563 C389.0469,21.5 389.0781,21.3125 389.0781,20.8906 L389.0781,19.4688 C389.0781,19.0313 389.0625,18.9063 388.9688,18.75 C388.8125,18.4844 388.5313,18.3438 388.2344,18.3438 C387.9375,18.3438 387.7344,18.4375 387.5156,18.75 L387.3438,18.6719 Z " fill="#000000"/><text fill="#000000" font-family="sans-serif" font-size="14" lengthAdjust="spacing" textLength="54" x="399" y="27.8467">Class07</text><line style="stroke:#181818;stroke-width:0.5;" x1="371" x2="455" y1="39" y2="39"/><line style="stroke:#181818;stroke-width:0.5;" x1="371" x2="455" y1="47" y2="47"/></g><!--MD5=[0e75c8574cc137f0f93c5ac687b4b98c]
class Class08--><g id="elem_Class08"><rect fill="#F1F1F1" height="48" id="Class08" rx="2.5" ry="2.5" style="stroke:#181818;stroke-width:0.5;" width="85" x="370.5" y="115"/><ellipse cx="385.5" cy="131" fill="#ADD1B2" rx="11" ry="11" style="stroke:#181818;stroke-width:1.0;"/><path d="M387.8438,126.6719 C386.9063,126.2344 386.3125,126.0938 385.4375,126.0938 C382.8125,126.0938 380.8125,128.1719 380.8125,130.8906 L380.8125,132.0156 C380.8125,134.5938 382.9219,136.4844 385.8125,136.4844 C387.0313,136.4844 388.1875,136.1875 388.9375,135.6406 C389.5156,135.2344 389.8438,134.7813 389.8438,134.3906 C389.8438,133.9375 389.4531,133.5469 388.9844,133.5469 C388.7656,133.5469 388.5625,133.625 388.375,133.8125 C387.9219,134.2969 387.9219,134.2969 387.7344,134.3906 C387.3125,134.6563 386.625,134.7813 385.8594,134.7813 C383.8125,134.7813 382.5156,133.6875 382.5156,131.9844 L382.5156,130.8906 C382.5156,129.1094 383.7656,127.7969 385.5,127.7969 C386.0781,127.7969 386.6875,127.9531 387.1563,128.2031 C387.6406,128.4844 387.8125,128.7031 387.9063,129.1094 C387.9688,129.5156 388,129.6406 388.1406,129.7656 C388.2813,129.9063 388.5156,130.0156 388.7344,130.0156 C389,130.0156 389.2656,129.875 389.4375,129.6563 C389.5469,129.5 389.5781,129.3125 389.5781,128.8906 L389.5781,127.4688 C389.5781,127.0313 389.5625,126.9063 389.4688,126.75 C389.3125,126.4844 389.0313,126.3438 388.7344,126.3438 C388.4375,126.3438 388.2344,126.4375 388.0156,126.75 L387.8438,126.6719 Z " fill="#000000"/><text fill="#000000" font-family="sans-serif" font-size="14" lengthAdjust="spacing" textLength="53" x="399.5" y="135.8467">Class08</text><line style="stroke:#181818;stroke-width:0.5;" x1="371.5" x2="454.5" y1="147" y2="147"/><line style="stroke:#181818;stroke-width:0.5;" x1="371.5" x2="454.5" y1="155" y2="155"/></g><!--MD5=[11c0341282256c64706f32de960d439a]
class Class09--><g id="elem_Class09"><rect fill="#F1F1F1" height="48" id="Class09" rx="2.5" ry="2.5" style="stroke:#181818;stroke-width:0.5;" width="86" x="491" y="7"/><ellipse cx="506" cy="23" fill="#ADD1B2" rx="11" ry="11" style="stroke:#181818;stroke-width:1.0;"/><path d="M508.3438,18.6719 C507.4063,18.2344 506.8125,18.0938 505.9375,18.0938 C503.3125,18.0938 501.3125,20.1719 501.3125,22.8906 L501.3125,24.0156 C501.3125,26.5938 503.4219,28.4844 506.3125,28.4844 C507.5313,28.4844 508.6875,28.1875 509.4375,27.6406 C510.0156,27.2344 510.3438,26.7813 510.3438,26.3906 C510.3438,25.9375 509.9531,25.5469 509.4844,25.5469 C509.2656,25.5469 509.0625,25.625 508.875,25.8125 C508.4219,26.2969 508.4219,26.2969 508.2344,26.3906 C507.8125,26.6563 507.125,26.7813 506.3594,26.7813 C504.3125,26.7813 503.0156,25.6875 503.0156,23.9844 L503.0156,22.8906 C503.0156,21.1094 504.2656,19.7969 506,19.7969 C506.5781,19.7969 507.1875,19.9531 507.6563,20.2031 C508.1406,20.4844 508.3125,20.7031 508.4063,21.1094 C508.4688,21.5156 508.5,21.6406 508.6406,21.7656 C508.7813,21.9063 509.0156,22.0156 509.2344,22.0156 C509.5,22.0156 509.7656,21.875 509.9375,21.6563 C510.0469,21.5 510.0781,21.3125 510.0781,20.8906 L510.0781,19.4688 C510.0781,19.0313 510.0625,18.9063 509.9688,18.75 C509.8125,18.4844 509.5313,18.3438 509.2344,18.3438 C508.9375,18.3438 508.7344,18.4375 508.5156,18.75 L508.3438,18.6719 Z " fill="#000000"/><text fill="#000000" font-family="sans-serif" font-size="14" lengthAdjust="spacing" textLength="54" x="520" y="27.8467">Class09</text><line style="stroke:#181818;stroke-width:0.5;" x1="492" x2="576" y1="39" y2="39"/><line style="stroke:#181818;stroke-width:0.5;" x1="492" x2="576" y1="47" y2="47"/></g><!--MD5=[f0780a43e5c0af3c52b439b7f3f3994e]
class Class10--><g id="elem_Class10"><rect fill="#F1F1F1" height="48" id="Class10" rx="2.5" ry="2.5" style="stroke:#181818;stroke-width:0.5;" width="86" x="491" y="115"/><ellipse cx="506" cy="131" fill="#ADD1B2" rx="11" ry="11" style="stroke:#181818;stroke-width:1.0;"/><path d="M508.3438,126.6719 C507.4063,126.2344 506.8125,126.0938 505.9375,126.0938 C503.3125,126.0938 501.3125,128.1719 501.3125,130.8906 L501.3125,132.0156 C501.3125,134.5938 503.4219,136.4844 506.3125,136.4844 C507.5313,136.4844 508.6875,136.1875 509.4375,135.6406 C510.0156,135.2344 510.3438,134.7813 510.3438,134.3906 C510.3438,133.9375 509.9531,133.5469 509.4844,133.5469 C509.2656,133.5469 509.0625,133.625 508.875,133.8125 C508.4219,134.2969 508.4219,134.2969 508.2344,134.3906 C507.8125,134.6563 507.125,134.7813 506.3594,134.7813 C504.3125,134.7813 503.0156,133.6875 503.0156,131.9844 L503.0156,130.8906 C503.0156,129.1094 504.2656,127.7969 506,127.7969 C506.5781,127.7969 507.1875,127.9531 507.6563,128.2031 C508.1406,128.4844 508.3125,128.7031 508.4063,129.1094 C508.4688,129.5156 508.5,129.6406 508.6406,129.7656 C508.7813,129.9063 509.0156,130.0156 509.2344,130.0156 C509.5,130.0156 509.7656,129.875 509.9375,129.6563 C510.0469,129.5 510.0781,129.3125 510.0781,128.8906 L510.0781,127.4688 C510.0781,127.0313 510.0625,126.9063 509.9688,126.75 C509.8125,126.4844 509.5313,126.3438 509.2344,126.3438 C508.9375,126.3438 508.7344,126.4375 508.5156,126.75 L508.3438,126.6719 Z " fill="#000000"/><text fill="#000000" font-family="sans-serif" font-size="14" lengthAdjust="spacing" textLength="54" x="520" y="135.8467">Class10</text><line style="stroke:#181818;stroke-width:0.5;" x1="492" x2="576" y1="147" y2="147"/><line style="stroke:#181818;stroke-width:0.5;" x1="492" x2="576" y1="155" y2="155"/></g><!--MD5=[3ab52052fd7925c5f64fca5d41d6866e]
reverse link Class01 to Class02--><g id="link_Class01_Class02"><path codeLine="1" d="M50,75.0236 C50,88.5792 50,103.0381 50,114.6784 " fill="none" id="Class01-backto-Class02" style="stroke:#181818;stroke-width:1.0;"/><polygon fill="none" points="43.0001,75.0005,50,55,57.0001,75.0004,43.0001,75.0005" style="stroke:#181818;stroke-width:1.0;"/></g><!--MD5=[0815ca07f8d628dc1a46a48ef0cd4c01]
reverse link Class03 to Class04--><g id="link_Class03_Class04"><path codeLine="2" d="M171,68.3383 C171,83.6813 171,101.098 171,114.6784 " fill="none" id="Class03-backto-Class04" style="stroke:#181818;stroke-width:1.0;"/><polygon fill="#181818" points="171,55,167,61,171,67,175,61,171,55" style="stroke:#181818;stroke-width:1.0;"/></g><!--MD5=[07ec844cc9d193d99f69abe09e63aa9e]
reverse link Class05 to Class06--><g id="link_Class05_Class06"><path codeLine="3" d="M292,68.3383 C292,83.6813 292,101.098 292,114.6784 " fill="none" id="Class05-backto-Class06" style="stroke:#181818;stroke-width:1.0;"/><polygon fill="none" points="292,55,288,61,292,67,296,61,292,55" style="stroke:#181818;stroke-width:1.0;"/></g><!--MD5=[cd6c6022d9f7be31b268d5c573778c45]
link Class07 to Class08--><g id="link_Class07_Class08"><path codeLine="4" d="M413,55 C413,72.6584 413,96.9408 413,114.6784 " fill="none" id="Class07-Class08" style="stroke:#181818;stroke-width:1.0;stroke-dasharray:7.0,7.0;"/></g><!--MD5=[012abb55b9b004b4a603a60db8edb83a]
link Class09 to Class10--><g id="link_Class09_Class10"><path codeLine="5" d="M534,55 C534,72.6584 534,96.9408 534,114.6784 " fill="none" id="Class09-Class10" style="stroke:#181818;stroke-width:1.0;"/></g><!--MD5=[280d0cb8568373d0476f7898603bdae3]
@startuml
Class01 <|- - Class02
Class03 *- - Class04
Class05 o- - Class06
Class07 .. Class08
Class09 - - Class10
@enduml

PlantUML version 1.2022.13beta2(Unknown compile time)
(GPL source distribution)
Java Runtime: Java(TM) SE Runtime Environment
JVM: Java HotSpot(TM) 64-Bit Server VM
Default Encoding: UTF-8
Language: en
Country: US
--></g></svg>