<?xml version="1.0" encoding="UTF-8" standalone="no"?><svg xmlns="http://www.w3.org/2000/svg" xmlns:xlink="http://www.w3.org/1999/xlink" contentStyleType="text/css" height="416px" preserveAspectRatio="none" style="width:601px;height:416px;background:#FFFFFF;" version="1.1" viewBox="0 0 601 416" width="601px" zoomAndPan="magnify"><defs/><g><rect fill="#F1F1F1" height="36.2969" rx="12.5" ry="12.5" style="stroke:#181818;stroke-width:1.5;" width="71" x="10" y="188.8906"/><text fill="#000000" font-family="sans-serif" font-size="14" lengthAdjust="spacing" textLength="51" x="20" y="211.8857">Debian</text><rect fill="#F1F1F1" height="36.2969" rx="12.5" ry="12.5" style="stroke:#181818;stroke-width:1.5;" width="71" x="131" y="104.4453"/><text fill="#000000" font-family="sans-serif" font-size="14" lengthAdjust="spacing" textLength="51" x="141" y="127.4404">Ubuntu</text><rect fill="#F1F1F1" height="36.2969" rx="12.5" ry="12.5" style="stroke:#181818;stroke-width:1.5;" width="93" x="252" y="20"/><text fill="#000000" font-family="sans-serif" font-size="14" lengthAdjust="spacing" textLength="73" x="262" y="42.9951">Linux Mint</text><path d="M202,122.5938 L212,122.5938 C227,122.5938 227,38.1484 242,38.1484 L252,38.1484 " fill="none" style="stroke:#181818;stroke-width:1.0;"/><rect fill="#F1F1F1" height="36.2969" rx="12.5" ry="12.5" style="stroke:#181818;stroke-width:1.5;" width="80" x="252" y="76.2969"/><text fill="#000000" font-family="sans-serif" font-size="14" lengthAdjust="spacing" textLength="60" x="262" y="99.292">Kubuntu</text><path d="M202,122.5938 L212,122.5938 C227,122.5938 227,94.4453 242,94.4453 L252,94.4453 " fill="none" style="stroke:#181818;stroke-width:1.0;"/><rect fill="#F1F1F1" height="36.2969" rx="12.5" ry="12.5" style="stroke:#181818;stroke-width:1.5;" width="78" x="252" y="132.5938"/><text fill="#000000" font-family="sans-serif" font-size="14" lengthAdjust="spacing" textLength="58" x="262" y="155.5889">Lubuntu</text><path d="M202,122.5938 L212,122.5938 C227,122.5938 227,150.7422 242,150.7422 L252,150.7422 " fill="none" style="stroke:#181818;stroke-width:1.0;"/><rect fill="#F1F1F1" height="36.2969" rx="12.5" ry="12.5" style="stroke:#181818;stroke-width:1.5;" width="91" x="252" y="188.8906"/><text fill="#000000" font-family="sans-serif" font-size="14" lengthAdjust="spacing" textLength="71" x="262" y="211.8857">KDE Neon</text><path d="M202,122.5938 L212,122.5938 C227,122.5938 227,207.0391 242,207.0391 L252,207.0391 " fill="none" style="stroke:#181818;stroke-width:1.0;"/><path d="M81,207.0391 L91,207.0391 C106,207.0391 106,122.5938 121,122.5938 L131,122.5938 " fill="none" style="stroke:#181818;stroke-width:1.0;"/><rect fill="#F1F1F1" height="36.2969" rx="12.5" ry="12.5" style="stroke:#181818;stroke-width:1.5;" width="60" x="131" y="160.7422"/><text fill="#000000" font-family="sans-serif" font-size="14" lengthAdjust="spacing" textLength="40" x="141" y="183.7373">LMDE</text><path d="M81,207.0391 L91,207.0391 C106,207.0391 106,178.8906 121,178.8906 L131,178.8906 " fill="none" style="stroke:#181818;stroke-width:1.0;"/><rect fill="#F1F1F1" height="36.2969" rx="12.5" ry="12.5" style="stroke:#181818;stroke-width:1.5;" width="79" x="131" y="217.0391"/><text fill="#000000" font-family="sans-serif" font-size="14" lengthAdjust="spacing" textLength="59" x="141" y="240.0342">SolydXK</text><path d="M81,207.0391 L91,207.0391 C106,207.0391 106,235.1875 121,235.1875 L131,235.1875 " fill="none" style="stroke:#181818;stroke-width:1.0;"/><rect fill="#F1F1F1" height="36.2969" rx="12.5" ry="12.5" style="stroke:#181818;stroke-width:1.5;" width="87" x="131" y="273.3359"/><text fill="#000000" font-family="sans-serif" font-size="14" lengthAdjust="spacing" textLength="67" x="141" y="296.3311">SteamOS</text><path d="M81,207.0391 L91,207.0391 C106,207.0391 106,291.4844 121,291.4844 L131,291.4844 " fill="none" style="stroke:#181818;stroke-width:1.0;"/><rect fill="#F1F1F1" height="36.2969" rx="12.5" ry="12.5" style="stroke:#181818;stroke-width:1.5;" width="247" x="131" y="329.6328"/><text fill="#000000" font-family="sans-serif" font-size="14" lengthAdjust="spacing" textLength="227" x="141" y="352.6279">Raspbian with a very long name</text><rect fill="#F1F1F1" height="36.2969" rx="12.5" ry="12.5" style="stroke:#181818;stroke-width:1.5;" width="159" x="428" y="301.4844"/><text fill="#000000" font-family="sans-serif" font-size="14" lengthAdjust="spacing" text-decoration="line-through" textLength="67" x="438" y="324.4795">Raspmbc</text><text fill="#000000" font-family="sans-serif" font-size="14" lengthAdjust="spacing" textLength="68" x="509" y="324.4795">=&gt; OSMC</text><path d="M378,347.7813 L388,347.7813 C403,347.7813 403,319.6328 418,319.6328 L428,319.6328 " fill="none" style="stroke:#181818;stroke-width:1.0;"/><rect fill="#F1F1F1" height="36.2969" rx="12.5" ry="12.5" style="stroke:#181818;stroke-width:1.5;" width="161" x="428" y="357.7813"/><text fill="#000000" font-family="sans-serif" font-size="14" lengthAdjust="spacing" text-decoration="line-through" textLength="53" x="438" y="380.7764">Raspyfi</text><text fill="#000000" font-family="sans-serif" font-size="14" lengthAdjust="spacing" textLength="84" x="495" y="380.7764">=&gt; Volumio</text><path d="M378,347.7813 L388,347.7813 C403,347.7813 403,375.9297 418,375.9297 L428,375.9297 " fill="none" style="stroke:#181818;stroke-width:1.0;"/><path d="M81,207.0391 L91,207.0391 C106,207.0391 106,347.7813 121,347.7813 L131,347.7813 " fill="none" style="stroke:#181818;stroke-width:1.0;"/><!--MD5=[326d1513bf7e352a67b6da3f7443d6e7]
@startmindmap
* Debian
** Ubuntu
*** Linux Mint
*** Kubuntu
*** Lubuntu
*** KDE Neon
** LMDE
** SolydXK
** SteamOS
** Raspbian with a very long name
*** <s>Raspmbc</s> => OSMC
*** <s>Raspyfi</s> => Volumio
@endmindmap

PlantUML version 1.2022.13beta2(Unknown compile time)
(GPL source distribution)
Java Runtime: Java(TM) SE Runtime Environment
JVM: Java HotSpot(TM) 64-Bit Server VM
Default Encoding: UTF-8
Language: en
Country: US
--></g></svg>