<?xml version="1.0" encoding="UTF-8" standalone="no"?><svg xmlns="http://www.w3.org/2000/svg" xmlns:xlink="http://www.w3.org/1999/xlink" contentScriptType="application/ecmascript" contentStyleType="text/css" height="339px" preserveAspectRatio="none" style="width:383px;height:339px;" version="1.1" viewBox="0 0 383 339" width="383px" zoomAndPan="magnify"><defs><filter height="300%" id="f1nwd5gfvwhd0s" width="300%" x="-1" y="-1"><feGaussianBlur result="blurOut" stdDeviation="2.0"/><feColorMatrix in="blurOut" result="blurOut2" type="matrix" values="0 0 0 0 0 0 0 0 0 0 0 0 0 0 0 0 0 0 .4 0"/><feOffset dx="4.0" dy="4.0" in="blurOut2" result="blurOut3"/><feBlend in="SourceGraphic" in2="blurOut3" mode="normal"/></filter></defs><g><line style="stroke: #A80036; stroke-width: 1.0; stroke-dasharray: 5.0,5.0;" x1="28" x2="28" y1="86.2969" y2="251.9609"/><line style="stroke: #A80036; stroke-width: 1.0; stroke-dasharray: 5.0,5.0;" x1="131" x2="131" y1="86.2969" y2="251.9609"/><line style="stroke: #A80036; stroke-width: 1.0; stroke-dasharray: 5.0,5.0;" x1="186" x2="186" y1="86.2969" y2="251.9609"/><line style="stroke: #A80036; stroke-width: 1.0; stroke-dasharray: 5.0,5.0;" x1="237" x2="237" y1="86.2969" y2="251.9609"/><line style="stroke: #A80036; stroke-width: 1.0; stroke-dasharray: 5.0,5.0;" x1="288" x2="288" y1="86.2969" y2="251.9609"/><line style="stroke: #A80036; stroke-width: 1.0; stroke-dasharray: 5.0,5.0;" x1="347" x2="347" y1="86.2969" y2="251.9609"/><text fill="#000000" font-family="sans-serif" font-size="14" lengthAdjust="spacingAndGlyphs" textLength="35" x="8" y="82.9951">Foo1</text><ellipse cx="28.5" cy="13" fill="#FEFECE" filter="url(#f1nwd5gfvwhd0s)" rx="8" ry="8" style="stroke: #A80036; stroke-width: 2.0;"/><path d="M28.5,21 L28.5,48 M15.5,29 L41.5,29 M28.5,48 L15.5,63 M28.5,48 L41.5,63 " fill="none" filter="url(#f1nwd5gfvwhd0s)" style="stroke: #A80036; stroke-width: 2.0;"/><text fill="#000000" font-family="sans-serif" font-size="14" lengthAdjust="spacingAndGlyphs" textLength="35" x="8" y="263.9561">Foo1</text><ellipse cx="28.5" cy="277.2578" fill="#FEFECE" filter="url(#f1nwd5gfvwhd0s)" rx="8" ry="8" style="stroke: #A80036; stroke-width: 2.0;"/><path d="M28.5,285.2578 L28.5,312.2578 M15.5,293.2578 L41.5,293.2578 M28.5,312.2578 L15.5,327.2578 M28.5,312.2578 L41.5,327.2578 " fill="none" filter="url(#f1nwd5gfvwhd0s)" style="stroke: #A80036; stroke-width: 2.0;"/><text fill="#000000" font-family="sans-serif" font-size="14" lengthAdjust="spacingAndGlyphs" textLength="35" x="111" y="82.9951">Foo2</text><path d="M111,42 L111,66 M111,54 L128,54 " fill="none" filter="url(#f1nwd5gfvwhd0s)" style="stroke: #A80036; stroke-width: 2.0;"/><ellipse cx="140" cy="54" fill="#FEFECE" filter="url(#f1nwd5gfvwhd0s)" rx="12" ry="12" style="stroke: #A80036; stroke-width: 2.0;"/><text fill="#000000" font-family="sans-serif" font-size="14" lengthAdjust="spacingAndGlyphs" textLength="35" x="111" y="263.9561">Foo2</text><path d="M111,271.2578 L111,295.2578 M111,283.2578 L128,283.2578 " fill="none" filter="url(#f1nwd5gfvwhd0s)" style="stroke: #A80036; stroke-width: 2.0;"/><ellipse cx="140" cy="283.2578" fill="#FEFECE" filter="url(#f1nwd5gfvwhd0s)" rx="12" ry="12" style="stroke: #A80036; stroke-width: 2.0;"/><text fill="#000000" font-family="sans-serif" font-size="14" lengthAdjust="spacingAndGlyphs" textLength="35" x="166" y="82.9951">Foo3</text><ellipse cx="186.5" cy="54" fill="#FEFECE" filter="url(#f1nwd5gfvwhd0s)" rx="12" ry="12" style="stroke: #A80036; stroke-width: 2.0;"/><polygon fill="#A80036" points="182.5,42,188.5,37,186.5,42,188.5,47,182.5,42" style="stroke: #A80036; stroke-width: 1.0;"/><text fill="#000000" font-family="sans-serif" font-size="14" lengthAdjust="spacingAndGlyphs" textLength="35" x="166" y="263.9561">Foo3</text><ellipse cx="186.5" cy="283.2578" fill="#FEFECE" filter="url(#f1nwd5gfvwhd0s)" rx="12" ry="12" style="stroke: #A80036; stroke-width: 2.0;"/><polygon fill="#A80036" points="182.5,271.2578,188.5,266.2578,186.5,271.2578,188.5,276.2578,182.5,271.2578" style="stroke: #A80036; stroke-width: 1.0;"/><text fill="#000000" font-family="sans-serif" font-size="14" lengthAdjust="spacingAndGlyphs" textLength="35" x="217" y="82.9951">Foo4</text><ellipse cx="237.5" cy="54" fill="#FEFECE" filter="url(#f1nwd5gfvwhd0s)" rx="12" ry="12" style="stroke: #A80036; stroke-width: 2.0;"/><line style="stroke: #A80036; stroke-width: 2.0;" x1="225.5" x2="249.5" y1="68" y2="68"/><text fill="#000000" font-family="sans-serif" font-size="14" lengthAdjust="spacingAndGlyphs" textLength="35" x="217" y="263.9561">Foo4</text><ellipse cx="237.5" cy="283.2578" fill="#FEFECE" filter="url(#f1nwd5gfvwhd0s)" rx="12" ry="12" style="stroke: #A80036; stroke-width: 2.0;"/><line style="stroke: #A80036; stroke-width: 2.0;" x1="225.5" x2="249.5" y1="297.2578" y2="297.2578"/><text fill="#000000" font-family="sans-serif" font-size="14" lengthAdjust="spacingAndGlyphs" textLength="35" x="268" y="82.9951">Foo5</text><path d="M270.5,34 C270.5,24 288.5,24 288.5,24 C288.5,24 306.5,24 306.5,34 L306.5,60 C306.5,70 288.5,70 288.5,70 C288.5,70 270.5,70 270.5,60 L270.5,34 " fill="#FEFECE" filter="url(#f1nwd5gfvwhd0s)" style="stroke: #000000; stroke-width: 1.5;"/><path d="M270.5,34 C270.5,44 288.5,44 288.5,44 C288.5,44 306.5,44 306.5,34 " fill="none" style="stroke: #000000; stroke-width: 1.5;"/><text fill="#000000" font-family="sans-serif" font-size="14" lengthAdjust="spacingAndGlyphs" textLength="35" x="268" y="263.9561">Foo5</text><path d="M270.5,277.2578 C270.5,267.2578 288.5,267.2578 288.5,267.2578 C288.5,267.2578 306.5,267.2578 306.5,277.2578 L306.5,303.2578 C306.5,313.2578 288.5,313.2578 288.5,313.2578 C288.5,313.2578 270.5,313.2578 270.5,303.2578 L270.5,277.2578 " fill="#FEFECE" filter="url(#f1nwd5gfvwhd0s)" style="stroke: #000000; stroke-width: 1.5;"/><path d="M270.5,277.2578 C270.5,287.2578 288.5,287.2578 288.5,287.2578 C288.5,287.2578 306.5,287.2578 306.5,277.2578 " fill="none" style="stroke: #000000; stroke-width: 1.5;"/><rect fill="#FEFECE" filter="url(#f1nwd5gfvwhd0s)" height="30.2969" style="stroke: #A80036; stroke-width: 1.5;" width="49" x="323" y="47"/><rect fill="#FEFECE" filter="url(#f1nwd5gfvwhd0s)" height="30.2969" style="stroke: #A80036; stroke-width: 1.5;" width="49" x="319" y="51"/><text fill="#000000" font-family="sans-serif" font-size="14" lengthAdjust="spacingAndGlyphs" textLength="35" x="326" y="70.9951">Foo6</text><rect fill="#FEFECE" filter="url(#f1nwd5gfvwhd0s)" height="30.2969" style="stroke: #A80036; stroke-width: 1.5;" width="49" x="323" y="250.9609"/><rect fill="#FEFECE" filter="url(#f1nwd5gfvwhd0s)" height="30.2969" style="stroke: #A80036; stroke-width: 1.5;" width="49" x="319" y="254.9609"/><text fill="#000000" font-family="sans-serif" font-size="14" lengthAdjust="spacingAndGlyphs" textLength="35" x="326" y="274.9561">Foo6</text><polygon fill="#A80036" points="119.5,113.4297,129.5,117.4297,119.5,121.4297,123.5,117.4297" style="stroke: #A80036; stroke-width: 1.0;"/><line style="stroke: #A80036; stroke-width: 1.0;" x1="28.5" x2="125.5" y1="117.4297" y2="117.4297"/><text fill="#000000" font-family="sans-serif" font-size="13" lengthAdjust="spacingAndGlyphs" textLength="79" x="35.5" y="112.3638">To boundary</text><polygon fill="#A80036" points="174.5,142.5625,184.5,146.5625,174.5,150.5625,178.5,146.5625" style="stroke: #A80036; stroke-width: 1.0;"/><line style="stroke: #A80036; stroke-width: 1.0;" x1="28.5" x2="180.5" y1="146.5625" y2="146.5625"/><text fill="#000000" font-family="sans-serif" font-size="13" lengthAdjust="spacingAndGlyphs" textLength="63" x="35.5" y="141.4966">To control</text><polygon fill="#A80036" points="225.5,171.6953,235.5,175.6953,225.5,179.6953,229.5,175.6953" style="stroke: #A80036; stroke-width: 1.0;"/><line style="stroke: #A80036; stroke-width: 1.0;" x1="28.5" x2="231.5" y1="175.6953" y2="175.6953"/><text fill="#000000" font-family="sans-serif" font-size="13" lengthAdjust="spacingAndGlyphs" textLength="55" x="35.5" y="170.6294">To entity</text><polygon fill="#A80036" points="276.5,200.8281,286.5,204.8281,276.5,208.8281,280.5,204.8281" style="stroke: #A80036; stroke-width: 1.0;"/><line style="stroke: #A80036; stroke-width: 1.0;" x1="28.5" x2="282.5" y1="204.8281" y2="204.8281"/><text fill="#000000" font-family="sans-serif" font-size="13" lengthAdjust="spacingAndGlyphs" textLength="79" x="35.5" y="199.7622">To database</text><polygon fill="#A80036" points="335.5,229.9609,345.5,233.9609,335.5,237.9609,339.5,233.9609" style="stroke: #A80036; stroke-width: 1.0;"/><line style="stroke: #A80036; stroke-width: 1.0;" x1="28.5" x2="341.5" y1="233.9609" y2="233.9609"/><text fill="#000000" font-family="sans-serif" font-size="13" lengthAdjust="spacingAndGlyphs" textLength="86" x="35.5" y="228.895">To collections</text><!--MD5=[5519039e4e551d37bfc24c582e5558e6]
@startuml
actor Foo1
boundary Foo2
control Foo3
entity Foo4
database Foo5
collections Foo6
Foo1 -> Foo2 : To boundary
Foo1 -> Foo3 : To control
Foo1 -> Foo4 : To entity
Foo1 -> Foo5 : To database
Foo1 -> Foo6 : To collections
@enduml

PlantUML version 1.2019.12(Sun Nov 03 10:24:54 UTC 2019)
(GPL source distribution)
Java Runtime: Java(TM) SE Runtime Environment
JVM: Java HotSpot(TM) 64-Bit Server VM
Java Version: 1.7.0_25-b15
Operating System: Linux
Default Encoding: UTF-8
Language: en
Country: US
--></g></svg>