<?xml version="1.0" encoding="UTF-8" standalone="no"?><svg xmlns="http://www.w3.org/2000/svg" xmlns:xlink="http://www.w3.org/1999/xlink" contentScriptType="application/ecmascript" contentStyleType="text/css" height="405px" preserveAspectRatio="none" style="width:586px;height:405px;" version="1.1" viewBox="0 0 586 405" width="586px" zoomAndPan="magnify"><defs><filter height="300%" id="fqfolnesfjqy" width="300%" x="-1" y="-1"><feGaussianBlur result="blurOut" stdDeviation="2.0"/><feColorMatrix in="blurOut" result="blurOut2" type="matrix" values="0 0 0 0 0 0 0 0 0 0 0 0 0 0 0 0 0 0 .4 0"/><feOffset dx="4.0" dy="4.0" in="blurOut2" result="blurOut3"/><feBlend in="SourceGraphic" in2="blurOut3" mode="normal"/></filter></defs><g><rect fill="#FEFECE" filter="url(#fqfolnesfjqy)" height="36.2969" rx="12.5" ry="12.5" style="stroke: #A80036; stroke-width: 1.5;" width="69" x="10" y="188.8906"/><text fill="#000000" font-family="sans-serif" font-size="14" lengthAdjust="spacingAndGlyphs" textLength="49" x="20" y="211.8857">Debian</text><rect fill="#FEFECE" filter="url(#fqfolnesfjqy)" height="36.2969" rx="12.5" ry="12.5" style="stroke: #A80036; stroke-width: 1.5;" width="71" x="129" y="104.4453"/><text fill="#000000" font-family="sans-serif" font-size="14" lengthAdjust="spacingAndGlyphs" textLength="51" x="139" y="127.4404">Ubuntu</text><rect fill="#FEFECE" filter="url(#fqfolnesfjqy)" height="36.2969" rx="12.5" ry="12.5" style="stroke: #A80036; stroke-width: 1.5;" width="88" x="250" y="20"/><text fill="#000000" font-family="sans-serif" font-size="14" lengthAdjust="spacingAndGlyphs" textLength="68" x="260" y="42.9951">Linux Mint</text><path d="M200,122.5938 L210,122.5938 C225,122.5938 225,38.1484 240,38.1484 L250,38.1484 " fill="none" style="stroke: #A80036; stroke-width: 1.0;"/><rect fill="#FEFECE" filter="url(#fqfolnesfjqy)" height="36.2969" rx="12.5" ry="12.5" style="stroke: #A80036; stroke-width: 1.5;" width="79" x="250" y="76.2969"/><text fill="#000000" font-family="sans-serif" font-size="14" lengthAdjust="spacingAndGlyphs" textLength="59" x="260" y="99.292">Kubuntu</text><path d="M200,122.5938 L210,122.5938 C225,122.5938 225,94.4453 240,94.4453 L250,94.4453 " fill="none" style="stroke: #A80036; stroke-width: 1.0;"/><rect fill="#FEFECE" filter="url(#fqfolnesfjqy)" height="36.2969" rx="12.5" ry="12.5" style="stroke: #A80036; stroke-width: 1.5;" width="77" x="250" y="132.5938"/><text fill="#000000" font-family="sans-serif" font-size="14" lengthAdjust="spacingAndGlyphs" textLength="57" x="260" y="155.5889">Lubuntu</text><path d="M200,122.5938 L210,122.5938 C225,122.5938 225,150.7422 240,150.7422 L250,150.7422 " fill="none" style="stroke: #A80036; stroke-width: 1.0;"/><rect fill="#FEFECE" filter="url(#fqfolnesfjqy)" height="36.2969" rx="12.5" ry="12.5" style="stroke: #A80036; stroke-width: 1.5;" width="90" x="250" y="188.8906"/><text fill="#000000" font-family="sans-serif" font-size="14" lengthAdjust="spacingAndGlyphs" textLength="70" x="260" y="211.8857">KDE Neon</text><path d="M200,122.5938 L210,122.5938 C225,122.5938 225,207.0391 240,207.0391 L250,207.0391 " fill="none" style="stroke: #A80036; stroke-width: 1.0;"/><path d="M79,207.0391 L89,207.0391 C104,207.0391 104,122.5938 119,122.5938 L129,122.5938 " fill="none" style="stroke: #A80036; stroke-width: 1.0;"/><rect fill="#FEFECE" filter="url(#fqfolnesfjqy)" height="36.2969" rx="12.5" ry="12.5" style="stroke: #A80036; stroke-width: 1.5;" width="59" x="129" y="160.7422"/><text fill="#000000" font-family="sans-serif" font-size="14" lengthAdjust="spacingAndGlyphs" textLength="39" x="139" y="183.7373">LMDE</text><path d="M79,207.0391 L89,207.0391 C104,207.0391 104,178.8906 119,178.8906 L129,178.8906 " fill="none" style="stroke: #A80036; stroke-width: 1.0;"/><rect fill="#FEFECE" filter="url(#fqfolnesfjqy)" height="36.2969" rx="12.5" ry="12.5" style="stroke: #A80036; stroke-width: 1.5;" width="75" x="129" y="217.0391"/><text fill="#000000" font-family="sans-serif" font-size="14" lengthAdjust="spacingAndGlyphs" textLength="55" x="139" y="240.0342">SolydXK</text><path d="M79,207.0391 L89,207.0391 C104,207.0391 104,235.1875 119,235.1875 L129,235.1875 " fill="none" style="stroke: #A80036; stroke-width: 1.0;"/><rect fill="#FEFECE" filter="url(#fqfolnesfjqy)" height="36.2969" rx="12.5" ry="12.5" style="stroke: #A80036; stroke-width: 1.5;" width="84" x="129" y="273.3359"/><text fill="#000000" font-family="sans-serif" font-size="14" lengthAdjust="spacingAndGlyphs" textLength="64" x="139" y="296.3311">SteamOS</text><path d="M79,207.0391 L89,207.0391 C104,207.0391 104,291.4844 119,291.4844 L129,291.4844 " fill="none" style="stroke: #A80036; stroke-width: 1.0;"/><rect fill="#FEFECE" filter="url(#fqfolnesfjqy)" height="36.2969" rx="12.5" ry="12.5" style="stroke: #A80036; stroke-width: 1.5;" width="237" x="129" y="329.6328"/><text fill="#000000" font-family="sans-serif" font-size="14" lengthAdjust="spacingAndGlyphs" textLength="217" x="139" y="352.6279">Raspbian with a very long name</text><rect fill="#FEFECE" filter="url(#fqfolnesfjqy)" height="36.2969" rx="12.5" ry="12.5" style="stroke: #A80036; stroke-width: 1.5;" width="159" x="416" y="301.4844"/><text fill="#000000" font-family="sans-serif" font-size="14" lengthAdjust="spacingAndGlyphs" text-decoration="line-through" textLength="65" x="426" y="324.4795">Raspmbc</text><text fill="#000000" font-family="sans-serif" font-size="14" lengthAdjust="spacingAndGlyphs" textLength="70" x="495" y="324.4795">=&gt; OSMC</text><path d="M366,347.7813 L376,347.7813 C391,347.7813 391,319.6328 406,319.6328 L416,319.6328 " fill="none" style="stroke: #A80036; stroke-width: 1.0;"/><rect fill="#FEFECE" filter="url(#fqfolnesfjqy)" height="36.2969" rx="12.5" ry="12.5" style="stroke: #A80036; stroke-width: 1.5;" width="156" x="416" y="357.7813"/><text fill="#000000" font-family="sans-serif" font-size="14" lengthAdjust="spacingAndGlyphs" text-decoration="line-through" textLength="49" x="426" y="380.7764">Raspyfi</text><text fill="#000000" font-family="sans-serif" font-size="14" lengthAdjust="spacingAndGlyphs" textLength="83" x="479" y="380.7764">=&gt; Volumio</text><path d="M366,347.7813 L376,347.7813 C391,347.7813 391,375.9297 406,375.9297 L416,375.9297 " fill="none" style="stroke: #A80036; stroke-width: 1.0;"/><path d="M79,207.0391 L89,207.0391 C104,207.0391 104,347.7813 119,347.7813 L129,347.7813 " fill="none" style="stroke: #A80036; stroke-width: 1.0;"/><!--MD5=[5d2125fdeb125c803f717038b266e127]
@startmindmap
* Debian
** Ubuntu
*** Linux Mint
*** Kubuntu
*** Lubuntu
*** KDE Neon
** LMDE
** SolydXK
** SteamOS
** Raspbian with a very long name
*** <s>Raspmbc</s> => OSMC
*** <s>Raspyfi</s> => Volumio
@endmindmap

PlantUML version 1.2019.12(Sun Nov 03 10:24:54 UTC 2019)
(GPL source distribution)
Java Runtime: Java(TM) SE Runtime Environment
JVM: Java HotSpot(TM) 64-Bit Server VM
Java Version: 1.7.0_25-b15
Operating System: Linux
Default Encoding: UTF-8
Language: en
Country: US
--></g></svg>