<?xml version="1.0" encoding="UTF-8" standalone="no"?><svg xmlns="http://www.w3.org/2000/svg" xmlns:xlink="http://www.w3.org/1999/xlink" contentStyleType="text/css" height="327px" preserveAspectRatio="none" style="width:452px;height:327px;background:#FFFFFF;" version="1.1" viewBox="0 0 452 327" width="452px" zoomAndPan="magnify"><defs/><g><line style="stroke:#181818;stroke-width:0.5;stroke-dasharray:5.0,5.0;" x1="34" x2="34" y1="81.2969" y2="246.9609"/><line style="stroke:#181818;stroke-width:0.5;stroke-dasharray:5.0,5.0;" x1="97" x2="97" y1="81.2969" y2="246.9609"/><line style="stroke:#181818;stroke-width:0.5;stroke-dasharray:5.0,5.0;" x1="152" x2="152" y1="81.2969" y2="246.9609"/><line style="stroke:#181818;stroke-width:0.5;stroke-dasharray:5.0,5.0;" x1="203" x2="203" y1="81.2969" y2="246.9609"/><line style="stroke:#181818;stroke-width:0.5;stroke-dasharray:5.0,5.0;" x1="253" x2="253" y1="81.2969" y2="246.9609"/><line style="stroke:#181818;stroke-width:0.5;stroke-dasharray:5.0,5.0;" x1="310" x2="310" y1="81.2969" y2="246.9609"/><line style="stroke:#181818;stroke-width:0.5;stroke-dasharray:5.0,5.0;" x1="421" x2="421" y1="81.2969" y2="246.9609"/><text fill="#000000" font-family="sans-serif" font-size="14" lengthAdjust="spacing" textLength="52" x="5" y="77.9951">Foo123</text><ellipse cx="34" cy="13.5" fill="#E2E2F0" rx="8" ry="8" style="stroke:#181818;stroke-width:0.5;"/><path d="M34,21.5 L34,48.5 M21,29.5 L47,29.5 M34,48.5 L21,63.5 M34,48.5 L47,63.5 " fill="none" style="stroke:#181818;stroke-width:0.5;"/><text fill="#000000" font-family="sans-serif" font-size="14" lengthAdjust="spacing" textLength="52" x="5" y="258.9561">Foo123</text><ellipse cx="34" cy="270.7578" fill="#E2E2F0" rx="8" ry="8" style="stroke:#181818;stroke-width:0.5;"/><path d="M34,278.7578 L34,305.7578 M21,286.7578 L47,286.7578 M34,305.7578 L21,320.7578 M34,305.7578 L47,320.7578 " fill="none" style="stroke:#181818;stroke-width:0.5;"/><text fill="#000000" font-family="sans-serif" font-size="14" lengthAdjust="spacing" textLength="34" x="77.5" y="77.9951">Foo2</text><path d="M77,37 L77,61 M77,49 L94,49 " fill="none" style="stroke:#181818;stroke-width:0.5;"/><ellipse cx="106" cy="49" fill="#E2E2F0" rx="12" ry="12" style="stroke:#181818;stroke-width:0.5;"/><text fill="#000000" font-family="sans-serif" font-size="14" lengthAdjust="spacing" textLength="34" x="77.5" y="258.9561">Foo2</text><path d="M77,266.2578 L77,290.2578 M77,278.2578 L94,278.2578 " fill="none" style="stroke:#181818;stroke-width:0.5;"/><ellipse cx="106" cy="278.2578" fill="#E2E2F0" rx="12" ry="12" style="stroke:#181818;stroke-width:0.5;"/><text fill="#000000" font-family="sans-serif" font-size="14" lengthAdjust="spacing" textLength="35" x="132" y="77.9951">Foo3</text><ellipse cx="152.5" cy="49" fill="#E2E2F0" rx="12" ry="12" style="stroke:#181818;stroke-width:0.5;"/><polygon fill="#181818" points="148.5,37,154.5,32,152.5,37,154.5,42,148.5,37" style="stroke:#181818;stroke-width:1.0;"/><text fill="#000000" font-family="sans-serif" font-size="14" lengthAdjust="spacing" textLength="35" x="132" y="258.9561">Foo3</text><ellipse cx="152.5" cy="278.2578" fill="#E2E2F0" rx="12" ry="12" style="stroke:#181818;stroke-width:0.5;"/><polygon fill="#181818" points="148.5,266.2578,154.5,261.2578,152.5,266.2578,154.5,271.2578,148.5,266.2578" style="stroke:#181818;stroke-width:1.0;"/><text fill="#000000" font-family="sans-serif" font-size="14" lengthAdjust="spacing" textLength="34" x="183" y="77.9951">Foo4</text><ellipse cx="203" cy="49" fill="#E2E2F0" rx="12" ry="12" style="stroke:#181818;stroke-width:0.5;"/><line style="stroke:#181818;stroke-width:0.5;" x1="191" x2="215" y1="63" y2="63"/><text fill="#000000" font-family="sans-serif" font-size="14" lengthAdjust="spacing" textLength="34" x="183" y="258.9561">Foo4</text><ellipse cx="203" cy="278.2578" fill="#E2E2F0" rx="12" ry="12" style="stroke:#181818;stroke-width:0.5;"/><line style="stroke:#181818;stroke-width:0.5;" x1="191" x2="215" y1="292.2578" y2="292.2578"/><text fill="#000000" font-family="sans-serif" font-size="14" lengthAdjust="spacing" textLength="35" x="233" y="77.9951">Foo5</text><path d="M235.5,29 C235.5,19 253.5,19 253.5,19 C253.5,19 271.5,19 271.5,29 L271.5,55 C271.5,65 253.5,65 253.5,65 C253.5,65 235.5,65 235.5,55 L235.5,29 " fill="#E2E2F0" style="stroke:#181818;stroke-width:1.5;"/><path d="M235.5,29 C235.5,39 253.5,39 253.5,39 C253.5,39 271.5,39 271.5,29 " fill="none" style="stroke:#181818;stroke-width:1.5;"/><text fill="#000000" font-family="sans-serif" font-size="14" lengthAdjust="spacing" textLength="35" x="233" y="258.9561">Foo5</text><path d="M235.5,272.2578 C235.5,262.2578 253.5,262.2578 253.5,262.2578 C253.5,262.2578 271.5,262.2578 271.5,272.2578 L271.5,298.2578 C271.5,308.2578 253.5,308.2578 253.5,308.2578 C253.5,308.2578 235.5,308.2578 235.5,298.2578 L235.5,272.2578 " fill="#E2E2F0" style="stroke:#181818;stroke-width:1.5;"/><path d="M235.5,272.2578 C235.5,282.2578 253.5,282.2578 253.5,282.2578 C253.5,282.2578 271.5,282.2578 271.5,272.2578 " fill="none" style="stroke:#181818;stroke-width:1.5;"/><rect fill="#E2E2F0" height="30.2969" style="stroke:#181818;stroke-width:0.5;" width="49" x="288" y="46"/><rect fill="#E2E2F0" height="30.2969" style="stroke:#181818;stroke-width:0.5;" width="49" x="284" y="50"/><text fill="#000000" font-family="sans-serif" font-size="14" lengthAdjust="spacing" textLength="35" x="291" y="69.9951">Foo6</text><rect fill="#E2E2F0" height="30.2969" style="stroke:#181818;stroke-width:0.5;" width="49" x="288" y="245.9609"/><rect fill="#E2E2F0" height="30.2969" style="stroke:#181818;stroke-width:0.5;" width="49" x="284" y="249.9609"/><text fill="#000000" font-family="sans-serif" font-size="14" lengthAdjust="spacing" textLength="35" x="291" y="269.9561">Foo6</text><rect fill="#E2E2F0" height="30.2969" rx="2.5" ry="2.5" style="stroke:#181818;stroke-width:0.5;" width="49" x="397" y="50"/><text fill="#000000" font-family="sans-serif" font-size="14" lengthAdjust="spacing" textLength="35" x="404" y="69.9951">Foo1</text><rect fill="#E2E2F0" height="30.2969" rx="2.5" ry="2.5" style="stroke:#181818;stroke-width:0.5;" width="49" x="397" y="245.9609"/><text fill="#000000" font-family="sans-serif" font-size="14" lengthAdjust="spacing" textLength="35" x="404" y="265.9561">Foo1</text><polygon fill="#181818" points="108.5,108.4297,98.5,112.4297,108.5,116.4297,104.5,112.4297" style="stroke:#181818;stroke-width:1.0;"/><line style="stroke:#181818;stroke-width:1.0;" x1="102.5" x2="420.5" y1="112.4297" y2="112.4297"/><text fill="#000000" font-family="sans-serif" font-size="13" lengthAdjust="spacing" textLength="81" x="114.5" y="107.3638">To boundary</text><polygon fill="#181818" points="163.5,137.5625,153.5,141.5625,163.5,145.5625,159.5,141.5625" style="stroke:#181818;stroke-width:1.0;"/><line style="stroke:#181818;stroke-width:1.0;" x1="157.5" x2="420.5" y1="141.5625" y2="141.5625"/><text fill="#000000" font-family="sans-serif" font-size="13" lengthAdjust="spacing" textLength="64" x="169.5" y="136.4966">To control</text><polygon fill="#181818" points="214,166.6953,204,170.6953,214,174.6953,210,170.6953" style="stroke:#181818;stroke-width:1.0;"/><line style="stroke:#181818;stroke-width:1.0;" x1="208" x2="420.5" y1="170.6953" y2="170.6953"/><text fill="#000000" font-family="sans-serif" font-size="13" lengthAdjust="spacing" textLength="57" x="220" y="165.6294">To entity</text><polygon fill="#181818" points="264.5,195.8281,254.5,199.8281,264.5,203.8281,260.5,199.8281" style="stroke:#181818;stroke-width:1.0;"/><line style="stroke:#181818;stroke-width:1.0;" x1="258.5" x2="420.5" y1="199.8281" y2="199.8281"/><text fill="#000000" font-family="sans-serif" font-size="13" lengthAdjust="spacing" textLength="80" x="270.5" y="194.7622">To database</text><polygon fill="#181818" points="321.5,224.9609,311.5,228.9609,321.5,232.9609,317.5,228.9609" style="stroke:#181818;stroke-width:1.0;"/><line style="stroke:#181818;stroke-width:1.0;" x1="315.5" x2="420.5" y1="228.9609" y2="228.9609"/><text fill="#000000" font-family="sans-serif" font-size="13" lengthAdjust="spacing" textLength="87" x="327.5" y="223.895">To collections</text><!--MD5=[ce9590dada5ee0a0298a9790a7cd7b64]
@startuml
actor Foo123
boundary Foo2
control Foo3
entity Foo4
database Foo5
collections Foo6
Foo1 -> Foo2 : To boundary
Foo1 -> Foo3 : To control
Foo1 -> Foo4 : To entity
Foo1 -> Foo5 : To database
Foo1 -> Foo6 : To collections
@enduml

PlantUML version 1.2022.13beta2(Unknown compile time)
(GPL source distribution)
Java Runtime: Java(TM) SE Runtime Environment
JVM: Java HotSpot(TM) 64-Bit Server VM
Default Encoding: UTF-8
Language: en
Country: US
--></g></svg>