<?xml version="1.0" encoding="UTF-8" standalone="no"?><svg xmlns="http://www.w3.org/2000/svg" xmlns:xlink="http://www.w3.org/1999/xlink" contentScriptType="application/ecmascript" contentStyleType="text/css" height="243px" preserveAspectRatio="none" style="width:269px;height:243px;" version="1.1" viewBox="0 0 269 243" width="269px" zoomAndPan="magnify"><defs><filter height="300%" id="fkn1s88dzkkrk" width="300%" x="-1" y="-1"><feGaussianBlur result="blurOut" stdDeviation="2.0"/><feColorMatrix in="blurOut" result="blurOut2" type="matrix" values="0 0 0 0 0 0 0 0 0 0 0 0 0 0 0 0 0 0 .4 0"/><feOffset dx="4.0" dy="4.0" in="blurOut2" result="blurOut3"/><feBlend in="SourceGraphic" in2="blurOut3" mode="normal"/></filter></defs><g><ellipse cx="81.5" cy="18" fill="#000000" filter="url(#fkn1s88dzkkrk)" rx="10" ry="10" style="stroke: none; stroke-width: 1.0;"/><rect fill="#FEFECE" filter="url(#fkn1s88dzkkrk)" height="64.2344" rx="12.5" ry="12.5" style="stroke: #A80036; stroke-width: 1.5;" width="151" x="6" y="88"/><line style="stroke: #A80036; stroke-width: 1.5;" x1="6" x2="157" y1="114.2969" y2="114.2969"/><text fill="#000000" font-family="sans-serif" font-size="14" lengthAdjust="spacingAndGlyphs" textLength="45" x="59" y="105.9951">State1</text><text fill="#000000" font-family="sans-serif" font-size="12" lengthAdjust="spacingAndGlyphs" textLength="89" x="11" y="130.4355">this is a string</text><text fill="#000000" font-family="sans-serif" font-size="12" lengthAdjust="spacingAndGlyphs" textLength="131" x="11" y="144.4043">this is another string</text><ellipse cx="152.5" cy="222" fill="none" filter="url(#fkn1s88dzkkrk)" rx="10" ry="10" style="stroke: #000000; stroke-width: 1.0;"/><ellipse cx="153" cy="222.5" fill="#000000" rx="6" ry="6" style="stroke: none; stroke-width: 1.0;"/><rect fill="#FEFECE" filter="url(#fkn1s88dzkkrk)" height="50" rx="12.5" ry="12.5" style="stroke: #A80036; stroke-width: 1.5;" width="65" x="192" y="95"/><line style="stroke: #A80036; stroke-width: 1.5;" x1="192" x2="257" y1="121.2969" y2="121.2969"/><text fill="#000000" font-family="sans-serif" font-size="14" lengthAdjust="spacingAndGlyphs" textLength="45" x="202" y="112.9951">State2</text><!--MD5=[60533a5dc91355c93bf187ba4549d745]
link *start to State1--><path d="M81.5,28.229 C81.5,40.515 81.5,62.965 81.5,82.463 " fill="none" id="*start-&gt;State1" style="stroke: #A80036; stroke-width: 1.0;"/><polygon fill="#A80036" points="81.5,87.873,85.5,78.873,81.5,82.873,77.5,78.873,81.5,87.873" style="stroke: #A80036; stroke-width: 1.0;"/><!--MD5=[ca1046a354e184ac9d197a073cc82934]
link State1 to *end--><path d="M103.5757,152.0925 C117.181,171.2547 133.871,194.762 143.821,208.7765 " fill="none" id="State1-&gt;*end" style="stroke: #A80036; stroke-width: 1.0;"/><polygon fill="#A80036" points="146.923,213.1453,144.973,203.4914,144.0278,209.0688,138.4505,208.1237,146.923,213.1453" style="stroke: #A80036; stroke-width: 1.0;"/><!--MD5=[dc702cd49c4e27e6abb2620dc4bb28d8]
link State1 to State2--><path d="M157.189,120 C167.041,120 176.893,120 186.745,120 " fill="none" id="State1-&gt;State2" style="stroke: #A80036; stroke-width: 1.0;"/><polygon fill="#A80036" points="191.896,120,182.896,116,186.896,120,182.896,124,191.896,120" style="stroke: #A80036; stroke-width: 1.0;"/><!--MD5=[37ebb224bae70bf8df0e6bab9d19d55b]
link State2 to *end--><path d="M207.071,145.2072 C192.463,165.4962 172.237,193.5877 160.961,209.2485 " fill="none" id="State2-&gt;*end" style="stroke: #A80036; stroke-width: 1.0;"/><polygon fill="#A80036" points="158.03,213.3192,166.5352,208.3532,160.9518,209.2617,160.0433,203.6783,158.03,213.3192" style="stroke: #A80036; stroke-width: 1.0;"/><!--MD5=[421da3b6bd8f06894ab7a6c5cfa282c2]
@startuml
[*] - -> State1
State1 - -> [*]
State1 : this is a string
State1 : this is another string

State1 -> State2
State2 - -> [*]
@enduml

PlantUML version 1.2019.12(Sun Nov 03 10:24:54 UTC 2019)
(GPL source distribution)
Java Runtime: Java(TM) SE Runtime Environment
JVM: Java HotSpot(TM) 64-Bit Server VM
Java Version: 1.7.0_25-b15
Operating System: Linux
Default Encoding: UTF-8
Language: en
Country: US
--></g></svg>